<svg xmlns="http://www.w3.org/2000/svg" xmlns:xlink="http://www.w3.org/1999/xlink" width="512" zoomAndPan="magnify" viewBox="0 0 384 383.999986" height="512" preserveAspectRatio="xMidYMid meet" version="1.0"><path fill="#f58634" d="M 174.234375 202.839844 C 168.761719 197.238281 163.515625 191.191406 158.5625 184.675781 C 164.667969 179.328125 170.765625 174.617188 176.644531 170.785156 C 178.230469 172.546875 179.871094 174.296875 181.566406 176.027344 C 183.890625 178.394531 186.289062 180.75 188.753906 183.078125 C 183.730469 189.449219 178.894531 196.058594 174.234375 202.839844 Z M 174.234375 202.839844 " fill-opacity="1" fill-rule="evenodd"/><path fill="#f58634" d="M 155.941406 181.152344 C 150.527344 173.6875 145.5 165.632812 140.957031 156.960938 C 148.359375 153.160156 155.355469 151.214844 161.539062 150.960938 C 165.121094 156.632812 169.300781 162.289062 174.046875 167.828125 C 167.703125 171.882812 161.675781 176.347656 155.941406 181.152344 Z M 155.941406 181.152344 " fill-opacity="1" fill-rule="evenodd"/><path fill="#f58634" d="M 180.011719 256.421875 C 172.285156 250.621094 164.65625 244.15625 157.257812 236.914062 C 162.230469 228.371094 167.550781 219.691406 173.050781 211.296875 C 179.414062 217.476562 186.125 223.269531 193.109375 228.601562 C 189.097656 237.679688 184.6875 247.109375 180.011719 256.421875 Z M 180.011719 256.421875 " fill-opacity="1" fill-rule="evenodd"/><path fill="#f58634" d="M 221.585938 238.714844 C 213.996094 234.535156 206.445312 229.769531 199.078125 224.375 C 202.546875 216.296875 205.839844 208.238281 208.976562 200.285156 C 214.925781 204.832031 221.203125 209.199219 227.820312 213.328125 C 226.105469 221.039062 224.007812 229.652344 221.585938 238.714844 Z M 221.585938 238.714844 " fill-opacity="1" fill-rule="evenodd"/><path fill="#f58634" d="M 195.960938 222.046875 C 189.414062 217.058594 183.03125 211.558594 176.898438 205.519531 C 181.65625 198.492188 186.519531 191.742188 191.390625 185.53125 C 195.945312 189.71875 200.742188 193.824219 205.777344 197.804688 C 203.003906 205.128906 199.691406 213.355469 195.960938 222.046875 Z M 195.960938 222.046875 " fill-opacity="1" fill-rule="evenodd"/><path fill="#f58634" d="M 194.535156 316.316406 C 184.4375 309.820312 173.929688 302.230469 163.398438 293.503906 C 169.417969 284.046875 175.046875 274.175781 180.324219 264.085938 C 189.203125 270.699219 198.535156 276.816406 208.230469 282.339844 C 204.023438 294.339844 199.421875 305.96875 194.535156 316.316406 Z M 194.535156 316.316406 " fill-opacity="1" fill-rule="evenodd"/><path fill="#f58634" d="M 210.421875 275.949219 C 201.339844 270.96875 192.160156 265.28125 183.09375 258.699219 C 187.734375 249.550781 192.097656 240.246094 196.214844 230.933594 C 203.757812 236.484375 211.589844 241.511719 219.617188 245.925781 C 216.878906 255.730469 213.792969 265.90625 210.421875 275.949219 Z M 210.421875 275.949219 " fill-opacity="1" fill-rule="evenodd"/><path fill="#f58634" d="M 160.621094 291.171875 C 153.296875 284.964844 145.976562 278.203125 138.792969 270.878906 C 143.226562 262.085938 148.488281 252.234375 154.289062 242.0625 C 161.511719 248.992188 169.195312 255.59375 177.277344 261.785156 C 171.964844 272.070312 166.351562 282.085938 160.621094 291.171875 Z M 160.621094 291.171875 " fill-opacity="1" fill-rule="evenodd"/><path fill="#484848" d="M 85.035156 54.5 C 129.90625 9.886719 239.652344 51.863281 299.769531 112.429688 C 359.890625 173 400.828125 274.695312 351.253906 325.65625 C 335.089844 342.273438 314.675781 350.136719 291.933594 350.597656 C 283.253906 350.773438 275.1875 349.464844 265.933594 347.5625 C 266.769531 342.808594 267.621094 338.890625 268.167969 333.707031 C 274.488281 274.203125 275.132812 257.242188 274.308594 235.207031 C 276.242188 235.664062 279.902344 236.3125 281.738281 236.59375 C 293.042969 238.320312 302.4375 236.585938 308.585938 230.210938 C 328.046875 210.027344 296.441406 157.648438 257.355469 127.050781 C 222.292969 99.605469 182.964844 78.453125 160.113281 86.328125 C 159.402344 86.570312 158.871094 86.683594 158.191406 86.984375 C 145.128906 81.273438 133.101562 78.277344 121.761719 77.230469 C 102.742188 75.476562 85.203125 79.65625 65.992188 87.679688 C 66.25 86.765625 66.519531 85.859375 66.804688 84.960938 C 70.503906 73.269531 76.539062 62.945312 85.035156 54.5 Z M 85.035156 54.5 " fill-opacity="1" fill-rule="evenodd"/><path fill="#f58634" d="M 35.386719 146.605469 C 36.890625 157.664062 39.804688 174.738281 44.457031 185.542969 C 51.019531 177.183594 58.0625 170.574219 65.882812 164.917969 C 62.03125 158.078125 56.128906 145.542969 54.242188 128.171875 C 47.269531 133.492188 40.992188 139.644531 35.386719 146.605469 Z M 35.386719 146.605469 " fill-opacity="1" fill-rule="evenodd"/><path fill="#f58634" d="M 8.929688 124.417969 C 8.308594 129.519531 8.25 140.882812 10.21875 154.957031 L 26.773438 138.441406 C 26.796875 130 26.820312 123.777344 26.839844 111.859375 Z M 8.929688 124.417969 " fill-opacity="1" fill-rule="evenodd"/><path fill="#f58634" d="M 80.855469 82.210938 C 78.421875 82.769531 60.683594 88.992188 50.292969 95.585938 C 49.988281 97.328125 50.078125 97.1875 50.160156 99.398438 C 50.363281 104.921875 51.589844 111.652344 52.921875 118.28125 C 57.84375 113.457031 76.785156 99.558594 80.46875 98.691406 C 80.386719 92.5 80.039062 88.082031 80.855469 82.210938 Z M 80.855469 82.210938 " fill-opacity="1" fill-rule="evenodd"/><path fill="#f58634" d="M 126.988281 123.332031 C 124.769531 116.363281 122.835938 109.085938 121.222656 101.488281 C 120.875 99.847656 120.988281 98.90625 120.894531 97.457031 C 129.542969 96.410156 138.15625 97.515625 146.851562 99.386719 C 146.621094 100.667969 146.414062 101.960938 146.355469 103.285156 C 146.070312 109.566406 146.9375 116.300781 148.875 123.277344 C 142.953125 122.066406 135.289062 121.539062 126.988281 123.332031 Z M 126.988281 123.332031 " fill-opacity="1" fill-rule="evenodd"/><path fill="#f58634" d="M 243.433594 249.15625 C 237.328125 246.65625 231.160156 243.796875 225.007812 240.554688 C 227.265625 232.125 229.347656 223.726562 231.285156 215.445312 C 236.058594 218.3125 241.003906 221.050781 246.125 223.636719 C 245.660156 231.265625 244.730469 239.917969 243.433594 249.15625 Z M 243.433594 249.15625 " fill-opacity="1" fill-rule="evenodd"/><path fill="#f58634" d="M 265.324219 256.324219 C 259.03125 255.074219 254.46875 253.46875 247.289062 250.695312 L 246.730469 250.472656 C 248.042969 242.117188 249.234375 233.835938 250.292969 225.691406 C 255.664062 228.273438 261.21875 230.6875 266.964844 232.914062 Z M 265.324219 256.324219 " fill-opacity="1" fill-rule="evenodd"/><path fill="#f58634" d="M 97.855469 140.78125 C 94.144531 130.144531 90.84375 118.78125 88.015625 106.632812 C 95.761719 102.261719 105.117188 100.425781 114.339844 98.902344 C 115.300781 107.878906 117.105469 116.773438 119.660156 125.507812 C 112.398438 128.273438 104.90625 133.03125 97.855469 140.78125 Z M 97.855469 140.78125 " fill-opacity="1" fill-rule="evenodd"/><path fill="#f58634" d="M 111.957031 174.292969 C 107.394531 165.195312 103.167969 155.4375 99.339844 144.953125 C 106.488281 137.417969 113.839844 132.5625 120.925781 129.640625 C 123.933594 139 127.785156 148.15625 132.371094 157.015625 C 125.9375 161.019531 119.207031 166.550781 111.957031 174.292969 Z M 111.957031 174.292969 " fill-opacity="1" fill-rule="evenodd"/><path fill="#f58634" d="M 130.9375 206.011719 C 124.925781 197.527344 119.234375 188.285156 113.960938 178.199219 C 120.796875 170.855469 127.695312 165.082031 134.371094 160.777344 C 139.109375 169.460938 144.546875 177.84375 150.566406 185.828125 C 143.589844 192.121094 137.0625 198.902344 130.9375 206.011719 Z M 130.9375 206.011719 " fill-opacity="1" fill-rule="evenodd"/><path fill="#f58634" d="M 154.476562 234.140625 C 147.277344 226.839844 140.3125 218.777344 133.707031 209.839844 C 139.988281 202.589844 146.621094 195.667969 153.324219 189.414062 C 158.609375 196.128906 164.304688 202.546875 170.335938 208.613281 C 164.800781 216.949219 159.519531 225.503906 154.476562 234.140625 Z M 154.476562 234.140625 " fill-opacity="1" fill-rule="evenodd"/><path fill="#f58634" d="M 236.441406 288.628906 C 229.066406 285.425781 221.46875 281.839844 213.789062 277.761719 C 217.171875 267.84375 220.234375 257.796875 223.039062 247.761719 C 229.378906 251.089844 235.824219 254.042969 242.339844 256.570312 C 240.730469 266.894531 238.726562 277.769531 236.441406 288.628906 Z M 236.441406 288.628906 " fill-opacity="1" fill-rule="evenodd"/><path fill="#f58634" d="M 261.695312 298.636719 C 254.726562 296.085938 247.363281 293.261719 239.746094 290.042969 C 241.855469 279.289062 243.800781 268.492188 245.558594 257.785156 C 251.722656 260.039062 257.933594 261.921875 264.152344 263.386719 Z M 261.695312 298.636719 " fill-opacity="1" fill-rule="evenodd"/><path fill="#f58634" d="M 88.910156 204.121094 C 83.152344 193.679688 77.882812 182.621094 73.226562 170.929688 C 73.003906 170.367188 72.800781 169.792969 72.589844 169.222656 C 79.730469 160.144531 87.054688 153.4375 94.515625 148.28125 C 97.527344 158.84375 101.761719 169.390625 107.070312 179.757812 C 101.375 186.414062 95.351562 194.4375 88.910156 204.121094 Z M 88.910156 204.121094 " fill-opacity="1" fill-rule="evenodd"/><path fill="#f58634" d="M 108.753906 235.367188 C 102.726562 227.054688 96.980469 218.242188 91.617188 208.921875 C 97.230469 199.210938 103.128906 190.816406 109.128906 183.667969 C 114.167969 192.996094 120.066406 202.15625 126.722656 211.03125 C 120.300781 218.871094 114.332031 227.046875 108.753906 235.367188 Z M 108.753906 235.367188 " fill-opacity="1" fill-rule="evenodd"/><path fill="#f58634" d="M 135.980469 267.976562 C 127.550781 259.164062 119.332031 249.5625 111.542969 239.15625 C 116.8125 231.019531 122.941406 222.730469 129.558594 214.738281 C 136.207031 223.257812 143.546875 231.492188 151.480469 239.328125 C 146.035156 248.867188 140.875 258.476562 135.980469 267.976562 Z M 135.980469 267.976562 " fill-opacity="1" fill-rule="evenodd"/><path fill="#f58634" d="M 225.273438 333.554688 C 216.714844 329.472656 207.367188 324.382812 197.589844 318.253906 C 202.761719 307.285156 207.382812 295.855469 211.546875 284.199219 C 219.144531 288.386719 226.953125 292.207031 234.933594 295.613281 C 232.015625 308.800781 228.722656 321.785156 225.273438 333.554688 Z M 225.273438 333.554688 " fill-opacity="1" fill-rule="evenodd"/><path fill="#f58634" d="M 256.015625 344.984375 C 249.054688 343.375 240.054688 340.273438 229.730469 335.621094 C 232.808594 323.019531 235.695312 310.082031 238.347656 297.035156 C 245.625 300.015625 253.039062 302.648438 260.554688 304.898438 Z M 256.015625 344.984375 " fill-opacity="1" fill-rule="evenodd"/><path fill="#f58634" d="M 158.121094 86.980469 C 156.035156 85.769531 138.515625 78.601562 127.054688 77.703125 C 125.851562 77.609375 124.625 77.429688 123.691406 77.4375 C 123.6875 77.472656 123.664062 77.714844 123.648438 77.746094 C 121.613281 82.296875 121.027344 88.394531 121.292969 89.585938 C 127.984375 87.917969 145.320312 92.703125 148.933594 93.824219 C 152.128906 88.535156 157.175781 87.417969 158.121094 86.980469 Z M 158.121094 86.980469 " fill-opacity="1" fill-rule="evenodd"/><path fill="#f58634" d="M 139.097656 153.320312 C 135.039062 145.167969 131.402344 136.488281 128.273438 127.25 C 131.859375 126.390625 135.328125 125.992188 138.605469 125.953125 C 140.28125 125.933594 141.90625 126.007812 143.476562 126.160156 C 145.832031 126.390625 148.054688 126.796875 150.117188 127.339844 C 152.28125 133.84375 155.347656 140.515625 159.253906 147.199219 C 152.609375 148.273438 145.988281 150.011719 139.097656 153.320312 Z M 139.097656 153.320312 " fill-opacity="1" fill-rule="evenodd"/></svg>